# xmcd CD database file
#
# Track frame offsets:
#	150
#	11883
#	23318
#	38345
#	48589
#	57196
#	69449
#	75445
#	89584
#	102913
#	114799
#	127675
#
# Disc length: 1849 seconds
#
# Revision: 1
# Processed by: cddbd v1.5.1PL0 Copyright (c) Steve Scherf et al.
# Submitted via: CDex 1.51
#
DISCID=8007370c
DTITLE=Gene Autry - San Antonio Rose
DYEAR=1900
DGENRE=Country
TTITLE0=Back In The Saddle Again
TTITLE1=Vaya Con Dios
TTITLE2=The Last Round Up
TTITLE3=San Antonio Rose
TTITLE4=You Are My Sunshine
TTITLE5=My Old Kentucky Home
TTITLE6=Cowboy Blues
TTITLE7=Mexicalli Rose
TTITLE8=Guns and Guitars
TTITLE9=El Rancho Grande
TTITLE10=South Of The Border
TTITLE11=It's Round Up Time In Reno
EXTD=
EXTT0=
EXTT1=
EXTT2=
EXTT3=
EXTT4=
EXTT5=
EXTT6=
EXTT7=
EXTT8=
EXTT9=
EXTT10=
EXTT11=
PLAYORDER=
